<mxfile host="app.diagrams.net" modified="2023-11-22T20:12:23.724Z" agent="Mozilla/5.0 (X11; Linux x86_64; rv:109.0) Gecko/20100101 Firefox/114.0" etag="Jj18yhkDkd9t2sY2FjZA" version="22.1.3" type="github">
  <diagram name="PÃ¡gina-1" id="XBzg9i-NaRBUf4UJGIT7">
    <mxGraphModel dx="908" dy="1416" grid="1" gridSize="10" guides="1" tooltips="1" connect="1" arrows="1" fold="1" page="1" pageScale="1" pageWidth="1169" pageHeight="827" math="0" shadow="0">
      <root>
        <mxCell id="0" />
        <mxCell id="1" parent="0" />
        <mxCell id="-L3M4i7uxhguOgWgxAJ2-1" value="&lt;div&gt;Factura&lt;/div&gt;" style="rounded=0;whiteSpace=wrap;html=1;" vertex="1" parent="1">
          <mxGeometry x="390" y="260" width="120" height="60" as="geometry" />
        </mxCell>
        <mxCell id="-L3M4i7uxhguOgWgxAJ2-2" value="Articulo" style="rounded=0;whiteSpace=wrap;html=1;" vertex="1" parent="1">
          <mxGeometry x="30" y="260" width="120" height="60" as="geometry" />
        </mxCell>
        <mxCell id="-L3M4i7uxhguOgWgxAJ2-12" style="edgeStyle=orthogonalEdgeStyle;rounded=0;orthogonalLoop=1;jettySize=auto;html=1;endArrow=none;endFill=0;" edge="1" parent="1" source="-L3M4i7uxhguOgWgxAJ2-3" target="-L3M4i7uxhguOgWgxAJ2-7">
          <mxGeometry relative="1" as="geometry" />
        </mxCell>
        <mxCell id="-L3M4i7uxhguOgWgxAJ2-3" value="Cliente" style="rounded=0;whiteSpace=wrap;html=1;" vertex="1" parent="1">
          <mxGeometry x="390" y="500" width="120" height="60" as="geometry" />
        </mxCell>
        <mxCell id="-L3M4i7uxhguOgWgxAJ2-4" value="&lt;div&gt;Direccion&lt;/div&gt;" style="rounded=0;whiteSpace=wrap;html=1;" vertex="1" parent="1">
          <mxGeometry x="390" y="730" width="120" height="60" as="geometry" />
        </mxCell>
        <mxCell id="-L3M4i7uxhguOgWgxAJ2-8" style="edgeStyle=orthogonalEdgeStyle;rounded=0;orthogonalLoop=1;jettySize=auto;html=1;endArrow=none;endFill=0;" edge="1" parent="1" source="-L3M4i7uxhguOgWgxAJ2-5" target="-L3M4i7uxhguOgWgxAJ2-2">
          <mxGeometry relative="1" as="geometry" />
        </mxCell>
        <mxCell id="-L3M4i7uxhguOgWgxAJ2-9" style="edgeStyle=orthogonalEdgeStyle;rounded=0;orthogonalLoop=1;jettySize=auto;html=1;endArrow=none;endFill=0;" edge="1" parent="1" source="-L3M4i7uxhguOgWgxAJ2-5" target="-L3M4i7uxhguOgWgxAJ2-1">
          <mxGeometry relative="1" as="geometry" />
        </mxCell>
        <mxCell id="-L3M4i7uxhguOgWgxAJ2-5" value="" style="shape=rhombus;perimeter=rhombusPerimeter;whiteSpace=wrap;html=1;align=center;" vertex="1" parent="1">
          <mxGeometry x="220" y="260" width="120" height="60" as="geometry" />
        </mxCell>
        <mxCell id="-L3M4i7uxhguOgWgxAJ2-10" style="edgeStyle=orthogonalEdgeStyle;rounded=0;orthogonalLoop=1;jettySize=auto;html=1;endArrow=none;endFill=0;" edge="1" parent="1" source="-L3M4i7uxhguOgWgxAJ2-6" target="-L3M4i7uxhguOgWgxAJ2-1">
          <mxGeometry relative="1" as="geometry" />
        </mxCell>
        <mxCell id="-L3M4i7uxhguOgWgxAJ2-11" style="edgeStyle=orthogonalEdgeStyle;rounded=0;orthogonalLoop=1;jettySize=auto;html=1;endArrow=none;endFill=0;" edge="1" parent="1" source="-L3M4i7uxhguOgWgxAJ2-6" target="-L3M4i7uxhguOgWgxAJ2-3">
          <mxGeometry relative="1" as="geometry" />
        </mxCell>
        <mxCell id="-L3M4i7uxhguOgWgxAJ2-6" value="" style="shape=rhombus;perimeter=rhombusPerimeter;whiteSpace=wrap;html=1;align=center;" vertex="1" parent="1">
          <mxGeometry x="390" y="390" width="120" height="60" as="geometry" />
        </mxCell>
        <mxCell id="-L3M4i7uxhguOgWgxAJ2-13" style="edgeStyle=orthogonalEdgeStyle;rounded=0;orthogonalLoop=1;jettySize=auto;html=1;endArrow=none;endFill=0;" edge="1" parent="1" source="-L3M4i7uxhguOgWgxAJ2-7" target="-L3M4i7uxhguOgWgxAJ2-4">
          <mxGeometry relative="1" as="geometry" />
        </mxCell>
        <mxCell id="-L3M4i7uxhguOgWgxAJ2-7" value="" style="shape=rhombus;perimeter=rhombusPerimeter;whiteSpace=wrap;html=1;align=center;" vertex="1" parent="1">
          <mxGeometry x="390" y="630" width="120" height="60" as="geometry" />
        </mxCell>
        <mxCell id="-L3M4i7uxhguOgWgxAJ2-14" value="numero" style="ellipse;whiteSpace=wrap;html=1;align=center;fontStyle=4;" vertex="1" parent="1">
          <mxGeometry x="340" y="160" width="100" height="40" as="geometry" />
        </mxCell>
        <mxCell id="-L3M4i7uxhguOgWgxAJ2-17" style="edgeStyle=orthogonalEdgeStyle;rounded=0;orthogonalLoop=1;jettySize=auto;html=1;entryX=0.5;entryY=0;entryDx=0;entryDy=0;endArrow=none;endFill=0;" edge="1" parent="1" source="-L3M4i7uxhguOgWgxAJ2-15" target="-L3M4i7uxhguOgWgxAJ2-1">
          <mxGeometry relative="1" as="geometry" />
        </mxCell>
        <mxCell id="-L3M4i7uxhguOgWgxAJ2-15" value="&lt;div&gt;item&lt;/div&gt;" style="ellipse;whiteSpace=wrap;html=1;align=center;fontStyle=4;" vertex="1" parent="1">
          <mxGeometry x="460" y="160" width="100" height="40" as="geometry" />
        </mxCell>
        <mxCell id="-L3M4i7uxhguOgWgxAJ2-16" style="edgeStyle=orthogonalEdgeStyle;rounded=0;orthogonalLoop=1;jettySize=auto;html=1;endArrow=none;endFill=0;" edge="1" parent="1" source="-L3M4i7uxhguOgWgxAJ2-14">
          <mxGeometry relative="1" as="geometry">
            <mxPoint x="410" y="260" as="targetPoint" />
          </mxGeometry>
        </mxCell>
        <mxCell id="-L3M4i7uxhguOgWgxAJ2-18" value="fecha" style="ellipse;whiteSpace=wrap;html=1;align=center;" vertex="1" parent="1">
          <mxGeometry x="560" y="210" width="100" height="40" as="geometry" />
        </mxCell>
        <mxCell id="-L3M4i7uxhguOgWgxAJ2-21" style="edgeStyle=orthogonalEdgeStyle;rounded=0;orthogonalLoop=1;jettySize=auto;html=1;entryX=1;entryY=0.5;entryDx=0;entryDy=0;endArrow=none;endFill=0;" edge="1" parent="1" source="-L3M4i7uxhguOgWgxAJ2-19" target="-L3M4i7uxhguOgWgxAJ2-1">
          <mxGeometry relative="1" as="geometry" />
        </mxCell>
        <mxCell id="-L3M4i7uxhguOgWgxAJ2-19" value="precio" style="ellipse;whiteSpace=wrap;html=1;align=center;" vertex="1" parent="1">
          <mxGeometry x="590" y="270" width="100" height="40" as="geometry" />
        </mxCell>
        <mxCell id="-L3M4i7uxhguOgWgxAJ2-20" style="edgeStyle=orthogonalEdgeStyle;rounded=0;orthogonalLoop=1;jettySize=auto;html=1;entryX=1.005;entryY=0.204;entryDx=0;entryDy=0;entryPerimeter=0;endArrow=none;endFill=0;" edge="1" parent="1" source="-L3M4i7uxhguOgWgxAJ2-18" target="-L3M4i7uxhguOgWgxAJ2-1">
          <mxGeometry relative="1" as="geometry" />
        </mxCell>
        <mxCell id="-L3M4i7uxhguOgWgxAJ2-25" style="edgeStyle=orthogonalEdgeStyle;rounded=0;orthogonalLoop=1;jettySize=auto;html=1;endArrow=none;endFill=0;" edge="1" parent="1" source="-L3M4i7uxhguOgWgxAJ2-22" target="-L3M4i7uxhguOgWgxAJ2-2">
          <mxGeometry relative="1" as="geometry" />
        </mxCell>
        <mxCell id="-L3M4i7uxhguOgWgxAJ2-22" value="codigo" style="ellipse;whiteSpace=wrap;html=1;align=center;fontStyle=4;" vertex="1" parent="1">
          <mxGeometry x="10" y="150" width="100" height="40" as="geometry" />
        </mxCell>
        <mxCell id="-L3M4i7uxhguOgWgxAJ2-24" value="articulo" style="ellipse;whiteSpace=wrap;html=1;align=center;" vertex="1" parent="1">
          <mxGeometry x="120" y="150" width="100" height="40" as="geometry" />
        </mxCell>
        <mxCell id="-L3M4i7uxhguOgWgxAJ2-26" style="edgeStyle=orthogonalEdgeStyle;rounded=0;orthogonalLoop=1;jettySize=auto;html=1;entryX=0.932;entryY=0.029;entryDx=0;entryDy=0;entryPerimeter=0;endArrow=none;endFill=0;" edge="1" parent="1" source="-L3M4i7uxhguOgWgxAJ2-24" target="-L3M4i7uxhguOgWgxAJ2-2">
          <mxGeometry relative="1" as="geometry" />
        </mxCell>
        <mxCell id="-L3M4i7uxhguOgWgxAJ2-30" style="edgeStyle=orthogonalEdgeStyle;rounded=0;orthogonalLoop=1;jettySize=auto;html=1;entryX=1;entryY=0.25;entryDx=0;entryDy=0;endArrow=none;endFill=0;" edge="1" parent="1" source="-L3M4i7uxhguOgWgxAJ2-27" target="-L3M4i7uxhguOgWgxAJ2-3">
          <mxGeometry relative="1" as="geometry" />
        </mxCell>
        <mxCell id="-L3M4i7uxhguOgWgxAJ2-27" value="numero" style="ellipse;whiteSpace=wrap;html=1;align=center;fontStyle=4;" vertex="1" parent="1">
          <mxGeometry x="585" y="414" width="100" height="40" as="geometry" />
        </mxCell>
        <mxCell id="-L3M4i7uxhguOgWgxAJ2-31" style="edgeStyle=orthogonalEdgeStyle;rounded=0;orthogonalLoop=1;jettySize=auto;html=1;entryX=1;entryY=0.75;entryDx=0;entryDy=0;endArrow=none;endFill=0;" edge="1" parent="1" source="-L3M4i7uxhguOgWgxAJ2-28" target="-L3M4i7uxhguOgWgxAJ2-3">
          <mxGeometry relative="1" as="geometry">
            <Array as="points">
              <mxPoint x="560" y="490" />
              <mxPoint x="560" y="545" />
            </Array>
          </mxGeometry>
        </mxCell>
        <mxCell id="-L3M4i7uxhguOgWgxAJ2-28" value="nombre" style="ellipse;whiteSpace=wrap;html=1;align=center;" vertex="1" parent="1">
          <mxGeometry x="585" y="470" width="100" height="40" as="geometry" />
        </mxCell>
        <mxCell id="-L3M4i7uxhguOgWgxAJ2-32" style="edgeStyle=orthogonalEdgeStyle;rounded=0;orthogonalLoop=1;jettySize=auto;html=1;entryX=1;entryY=1;entryDx=0;entryDy=0;endArrow=none;endFill=0;" edge="1" parent="1" source="-L3M4i7uxhguOgWgxAJ2-29" target="-L3M4i7uxhguOgWgxAJ2-3">
          <mxGeometry relative="1" as="geometry">
            <Array as="points">
              <mxPoint x="548" y="550" />
              <mxPoint x="548" y="580" />
              <mxPoint x="510" y="580" />
            </Array>
          </mxGeometry>
        </mxCell>
        <mxCell id="-L3M4i7uxhguOgWgxAJ2-29" value="apellido" style="ellipse;whiteSpace=wrap;html=1;align=center;" vertex="1" parent="1">
          <mxGeometry x="585" y="520" width="100" height="40" as="geometry" />
        </mxCell>
        <mxCell id="-L3M4i7uxhguOgWgxAJ2-37" style="edgeStyle=orthogonalEdgeStyle;rounded=0;orthogonalLoop=1;jettySize=auto;html=1;entryX=0;entryY=0.5;entryDx=0;entryDy=0;endArrow=none;endFill=0;" edge="1" parent="1" source="-L3M4i7uxhguOgWgxAJ2-33" target="-L3M4i7uxhguOgWgxAJ2-4">
          <mxGeometry relative="1" as="geometry" />
        </mxCell>
        <mxCell id="-L3M4i7uxhguOgWgxAJ2-33" value="id" style="ellipse;whiteSpace=wrap;html=1;align=center;fontStyle=4;" vertex="1" parent="1">
          <mxGeometry x="300" y="820" width="100" height="40" as="geometry" />
        </mxCell>
        <mxCell id="-L3M4i7uxhguOgWgxAJ2-38" style="edgeStyle=orthogonalEdgeStyle;rounded=0;orthogonalLoop=1;jettySize=auto;html=1;endArrow=none;endFill=0;" edge="1" parent="1" source="-L3M4i7uxhguOgWgxAJ2-34" target="-L3M4i7uxhguOgWgxAJ2-4">
          <mxGeometry relative="1" as="geometry" />
        </mxCell>
        <mxCell id="-L3M4i7uxhguOgWgxAJ2-34" value="ciudad" style="ellipse;whiteSpace=wrap;html=1;align=center;" vertex="1" parent="1">
          <mxGeometry x="400" y="850" width="100" height="40" as="geometry" />
        </mxCell>
        <mxCell id="-L3M4i7uxhguOgWgxAJ2-39" style="edgeStyle=orthogonalEdgeStyle;rounded=0;orthogonalLoop=1;jettySize=auto;html=1;entryX=1;entryY=1;entryDx=0;entryDy=0;endArrow=none;endFill=0;" edge="1" parent="1" source="-L3M4i7uxhguOgWgxAJ2-35" target="-L3M4i7uxhguOgWgxAJ2-4">
          <mxGeometry relative="1" as="geometry" />
        </mxCell>
        <mxCell id="-L3M4i7uxhguOgWgxAJ2-35" value="calle" style="ellipse;whiteSpace=wrap;html=1;align=center;" vertex="1" parent="1">
          <mxGeometry x="520" y="827" width="100" height="40" as="geometry" />
        </mxCell>
        <mxCell id="-L3M4i7uxhguOgWgxAJ2-40" style="edgeStyle=orthogonalEdgeStyle;rounded=0;orthogonalLoop=1;jettySize=auto;html=1;endArrow=none;endFill=0;" edge="1" parent="1" source="-L3M4i7uxhguOgWgxAJ2-36" target="-L3M4i7uxhguOgWgxAJ2-4">
          <mxGeometry relative="1" as="geometry" />
        </mxCell>
        <mxCell id="-L3M4i7uxhguOgWgxAJ2-36" value="numero" style="ellipse;whiteSpace=wrap;html=1;align=center;" vertex="1" parent="1">
          <mxGeometry x="550" y="750" width="100" height="40" as="geometry" />
        </mxCell>
      </root>
    </mxGraphModel>
  </diagram>
</mxfile>
